<svg width="29" height="27" viewBox="0 0 29 27" fill="none" xmlns="http://www.w3.org/2000/svg">
<path d="M15.1044 5.6058C18.7688 5.6058 22.4321 5.60475 26.0964 5.6058C27.8538 5.60685 28.9908 6.76443 28.9969 8.56499C29.0031 10.1803 29 11.7946 28.998 13.41C28.9969 13.933 28.9528 13.9783 28.4341 13.9783C26.5127 13.9804 24.5893 14.014 22.6689 13.9677C21.2079 13.933 20.0011 15.1358 19.9037 16.5754C19.8043 18.0424 20.8521 19.3221 22.3234 19.5283C22.59 19.5652 22.8606 19.582 23.1293 19.583C24.8938 19.5883 26.6583 19.5851 28.4228 19.5862C28.958 19.5862 28.998 19.6272 28.999 20.1776C29.001 21.4699 29.0041 22.7611 28.998 24.0534C28.9898 25.8077 27.8353 26.9915 26.1333 26.9926C18.9636 26.9947 11.7928 27.0126 4.62299 26.98C2.77442 26.9716 1.37183 26.0381 0.431654 24.4007C0.134323 23.8829 0.00616359 23.3083 0.00616359 22.7106C0.0010372 16.4481 -0.0040892 10.1846 0.00616359 3.91995C0.00923942 1.8784 1.42925 0.338819 3.50851 0.0799421C3.90837 0.0304819 4.31438 0.00312095 4.71732 0.00312095C11.5282 -0.00108843 18.3392 -0.00108843 25.1501 0.00101626C26.4132 0.00101626 27.4867 0.732396 27.784 1.91418C27.9347 2.51401 27.8825 3.16857 27.9019 3.79893C27.903 3.85049 27.7348 3.96204 27.6579 3.95046C27.2591 3.89259 26.8592 3.82208 26.4706 3.71369C26.3538 3.68106 26.2348 3.52742 26.1856 3.40114C26.1344 3.27065 26.1692 3.10543 26.1631 2.956C26.1323 2.20357 25.7991 1.86893 25.0629 1.86788C20.3087 1.86577 15.5545 1.86682 10.8003 1.86682C8.42883 1.86682 6.05736 1.86472 3.68589 1.86998C2.86156 1.87208 2.0803 2.47613 1.86192 3.25592C1.61483 4.13778 2.13362 5.12699 3.05432 5.44795C3.366 5.55634 3.71357 5.59844 4.04576 5.59949C7.73164 5.61001 11.4175 5.6058 15.1044 5.6058Z" fill="#D1D5DB"/>
</svg>
